<svg
   data-name="Layer 1"
   version="1.1"
   viewBox="0 0 538.58 728.5"
   id="svg24"
   sodipodi:docname="back-cover2.svg"
   inkscape:version="1.3.2 (091e20e, 2023-11-25, custom)"
   xmlns:inkscape="http://www.inkscape.org/namespaces/inkscape"
   xmlns:sodipodi="http://sodipodi.sourceforge.net/DTD/sodipodi-0.dtd"
   xmlns="http://www.w3.org/2000/svg"
   xmlns:svg="http://www.w3.org/2000/svg">
  <sodipodi:namedview
     id="namedview24"
     pagecolor="#ffffff"
     bordercolor="#000000"
     borderopacity="0.25"
     inkscape:showpageshadow="2"
     inkscape:pageopacity="0.0"
     inkscape:pagecheckerboard="0"
     inkscape:deskcolor="#d1d1d1"
     inkscape:zoom="0.58682224"
     inkscape:cx="75.832164"
     inkscape:cy="472.88596"
     inkscape:window-width="1920"
     inkscape:window-height="1111"
     inkscape:window-x="-9"
     inkscape:window-y="-9"
     inkscape:window-maximized="1"
     inkscape:current-layer="svg24" />
  <defs
     id="defs10">
    <style
       id="style1">.cls-1{fill:#0071bb;}.cls-2{fill:#fff;}</style>
    <clipPath
       id="clipPath13886">
      <path
         transform="translate(-322.99 -64.397)"
         d="m0 0h595.28v841.89h-595.28z"
         id="path1" />
    </clipPath>
    <clipPath
       id="clipPath13889">
      <path
         transform="translate(-249.47 -40.384)"
         d="m0 0h595.28v841.89h-595.28z"
         id="path2" />
    </clipPath>
    <clipPath
       id="clipPath13894">
      <path
         transform="translate(-295.48 -43.58)"
         d="m0 0h595.28v841.89h-595.28z"
         id="path3" />
    </clipPath>
    <clipPath
       id="clipPath13896">
      <path
         transform="translate(-301.71 -45.321)"
         d="m0 0h595.28v841.89h-595.28z"
         id="path4" />
    </clipPath>
    <clipPath
       id="clipPath13901">
      <path
         transform="translate(-332.6 -40.721)"
         d="m0 0h595.28v841.89h-595.28z"
         id="path5" />
    </clipPath>
    <clipPath
       id="clipPath13904">
      <path
         transform="translate(-255.72 -66.96)"
         d="m0 0h595.28v841.89h-595.28z"
         id="path6" />
    </clipPath>
    <clipPath
       id="clipPath13906">
      <path
         transform="translate(-262.15 -66.569)"
         d="m0 0h595.28v841.89h-595.28z"
         id="path7" />
    </clipPath>
    <clipPath
       id="clipPath13908">
      <path
         transform="translate(-261.08 -66.958)"
         d="m0 0h595.28v841.89h-595.28z"
         id="path8" />
    </clipPath>
    <clipPath
       id="clipPath13910">
      <path
         transform="translate(-258.41 -64.158)"
         d="m0 0h595.28v841.89h-595.28z"
         id="path9" />
    </clipPath>
    <clipPath
       id="clipPath13912">
      <path
         transform="translate(-270.02 -78.104)"
         d="m0 0h595.28v841.89h-595.28z"
         id="path10" />
    </clipPath>
    <clipPath
       clipPathUnits="userSpaceOnUse"
       id="clipPath13906-4">
      <path
         d="M 0,0 H 595.276 V 841.89 H 0 Z"
         transform="translate(-262.15101,-66.568577)"
         id="path13906" />
    </clipPath>
    <clipPath
       clipPathUnits="userSpaceOnUse"
       id="clipPath13904-8">
      <path
         d="M 0,0 H 595.276 V 841.89 H 0 Z"
         transform="translate(-255.72051,-66.960302)"
         id="path13904" />
    </clipPath>
    <clipPath
       clipPathUnits="userSpaceOnUse"
       id="clipPath13901-1">
      <path
         d="M 0,0 H 595.276 V 841.89 H 0 Z"
         transform="translate(-332.60001,-40.721326)"
         id="path13901" />
    </clipPath>
  </defs>
  <path
     d="m 0.44216,4.79 h 539.35 v 726.96 h -539.35 z"
     fill="#0033a1"
     id="path11" />
  <path
     id="path13903"
     d="M 0,0 C 0.31,0 0.561,0.251 0.561,0.561 0.561,0.871 0.31,1.122 0,1.122 -0.31,1.122 -0.561,0.871 -0.561,0.561 -0.561,0.251 -0.31,0 0,0"
     style="fill:#ffffff icc-color(sRGB-IEC61966-2, 0.1, 1, 1, 1);fill-opacity:1;fill-rule:nonzero;stroke:none"
     transform="matrix(0.90605527,0,0,-0.86348719,232.19854,671.4207)"
     clip-path="url(#clipPath13904-8)" />
  <path
     id="path13905"
     d="m 0,0 c -0.037,0.091 -0.126,0.151 -0.224,0.151 h -0.013 -0.389 -0.279 -0.333 -0.269 -0.399 -0.003 c -0.097,0 -0.185,-0.058 -0.223,-0.148 L -3.208,-2.533 H -4.27 l -1.077,2.536 c -0.038,0.09 -0.125,0.148 -0.222,0.148 h -0.862 -0.862 c -0.097,0 -0.185,-0.058 -0.222,-0.148 L -8.65,-2.671 c -0.047,-0.111 -0.013,-0.246 0.09,-0.309 0.041,-0.025 0.085,-0.036 0.128,-0.036 0.094,0 0.183,0.054 0.223,0.147 l 1.001,2.36 0.073,-2.297 -0.376,-2.91 c -0.013,-0.114 0.048,-0.228 0.155,-0.267 0.029,-0.01 0.057,-0.015 0.084,-0.015 0.121,0 0.225,0.09 0.24,0.213 l 0.358,2.769 h 0.485 l 0.359,-2.769 c 0.015,-0.123 0.119,-0.213 0.24,-0.213 0.027,0 0.055,0.005 0.084,0.015 0.107,0.039 0.168,0.153 0.154,0.267 l -0.375,2.91 0.073,2.297 1.001,-2.359 c 0,-0.001 0,-0.002 10e-4,-0.003 0.005,-0.012 0.012,-0.024 0.019,-0.036 0.003,-0.003 0.005,-0.006 0.007,-0.009 0.007,-0.009 0.013,-0.017 0.021,-0.024 0.002,-0.003 0.005,-0.007 0.008,-0.009 0.008,-0.008 0.018,-0.016 0.027,-0.023 0.002,-10e-4 0.004,-0.003 0.006,-0.004 0.011,-0.008 0.024,-0.014 0.036,-0.02 0.004,-0.002 0.007,-0.002 0.011,-0.004 0.01,-0.004 0.02,-0.007 0.031,-0.009 0.004,-10e-4 0.008,-0.002 0.012,-0.003 0.015,-0.003 0.029,-0.004 0.044,-0.004 h 10e-4 0.2 l -0.323,-1.639 c -0.023,-0.116 0.007,-0.236 0.082,-0.328 0.047,-0.057 0.108,-0.099 0.175,-0.123 v -0.693 c 0,-0.111 0.091,-0.201 0.202,-0.201 0.111,0 0.201,0.09 0.201,0.201 v 0.67 h 10e-4 C -3.884,-5.13 -3.877,-5.13 -3.87,-5.13 h 0.13 0.132 v 0 c 0.007,0 0.014,0 0.021,0.001 h 0.001 v -0.67 c 0,-0.111 0.09,-0.201 0.201,-0.201 0.111,0 0.201,0.09 0.201,0.201 v 0.693 c 0.068,0.025 0.128,0.066 0.175,0.124 0.076,0.092 0.105,0.212 0.083,0.329 l -0.323,1.637 h 0.2 10e-4 c 0.015,0 0.029,10e-4 0.043,0.004 0.005,10e-4 0.009,0.002 0.013,0.003 0.01,0.002 0.02,0.005 0.03,0.009 0.004,0.002 0.008,0.002 0.011,0.004 0.013,0.006 0.025,0.012 0.037,0.02 0.002,10e-4 0.004,0.003 0.006,0.004 0.009,0.007 0.018,0.015 0.027,0.023 0.003,0.002 0.005,0.006 0.008,0.009 0.007,0.007 0.014,0.015 0.02,0.024 0.003,0.003 0.005,0.006 0.008,0.009 0.007,0.012 0.014,0.024 0.019,0.036 0,10e-4 10e-4,0.002 10e-4,0.003 l 1.037,2.445 0.204,-0.994 c 0.034,-0.162 0.029,-0.333 -0.014,-0.499 l -0.948,-4.081 h 1.308 0.333 1.308 l -0.949,4.087 c -0.042,0.16 -0.046,0.331 -0.013,0.493 l 0.206,1.003 0.801,-1.97 c 0.039,-0.094 0.129,-0.151 0.224,-0.151 0.031,0 0.062,0.006 0.091,0.018 0.124,0.05 0.183,0.191 0.133,0.315 z"
     style="fill:#ffffff icc-color(sRGB-IEC61966-2, 0.1, 1, 1, 1);fill-opacity:1;fill-rule:nonzero;stroke:none"
     transform="matrix(0.90605527,0,0,-0.86348719,237.98585,672.00072)"
     clip-path="url(#clipPath13906-4)" />
  <g
     fill="#ffffff"
     id="g24">
    <path
       d="m261.3 685.73h-3.5925v-23.83h3.5925z"
       id="path12" />
    <path
       transform="matrix(.90606 0 0 -.86349 293.09 673.78)"
       d="m0 0c0-7.931-6.07-14.203-15.094-14.203-8.66 0-14.567 6.394-14.567 14.082 0 7.324 5.341 14.243 14.77 14.243 9.185 0 14.891-6.716 14.891-14.122m-25.574-0.121c0-6.272 4.936-10.4 10.723-10.4 2.954 0 6.151 1.214 8.052 3.278 1.74 1.902 2.752 4.896 2.752 7.284 0 4.572-3.48 10.359-10.682 10.359-7.729 0-10.845-5.908-10.845-10.521"
       clip-path="url(#clipPath13886)"
       id="path13" />
    <path
       d="m321.21 685.73h-3.5934v-18.554l-7.6997 9.2246h-0.6596l-7.773-9.2246v18.554h-3.5925v-23.83h3.3723l8.323 9.7833 8.2859-9.7833h3.337z"
       id="path14" />
    <path
       transform="matrix(.90606 0 0 -.86349 226.47 694.52)"
       d="m0 0c0-1.282-0.124-1.929-0.523-2.603-0.399-0.689-1.444-1.781-3.439-1.781-0.633 0-2.381 0.135-3.358 1.605-0.495 0.742-0.632 1.403-0.632 2.779v4.937h1.031v-4.991c0-1.363 0.207-1.996 0.757-2.563 0.564-0.58 1.376-0.85 2.202-0.85 1.444 0 2.283 0.782 2.628 1.484 0.302 0.607 0.302 1.699 0.302 1.929v4.991h1.032z"
       clip-path="url(#clipPath13889)"
       id="path15" />
    <path
       d="m237.59 698.2h-0.79732l-6.0715-6.5461v6.5461h-0.90968v-7.9432h0.79733l6.0715 6.5452v-6.5452h0.90967z"
       id="path16" />
    <path
       d="m253.24 698.2h-0.93504v-6.616l-2.9293 3.3901h-0.0996l-2.942-3.3901v6.616h-0.93504v-7.9432h0.89699l3.029 3.4824 3.0172-3.4824h0.8979z"
       id="path17" />
    <path
       d="m257.84 698.2h-0.93505v-7.9432h0.93505z"
       id="path18" />
    <path
       transform="matrix(.90606 0 0 -.86349 268.16 691.76)"
       d="m0 0c-1.514 0.917-2.972 0.944-3.33 0.944-2.256 0-3.88-1.686-3.88-3.804 0-2.508 2.009-3.83 3.867-3.83 1.196 0 2.173 0.391 2.504 0.512v2.185h-1.899v0.891h2.931v-3.71c-1.129-0.485-2.216-0.768-3.44-0.768-3.179 0-5.064 2.238-5.064 4.707 0 2.603 2.009 4.734 5.05 4.734 1.349 0 2.353-0.404 3.261-0.782z"
       clip-path="url(#clipPath13894)"
       id="path19" />
    <path
       transform="matrix(.90606 0 0 -.86349 273.81 690.26)"
       d="m0 0c2.436 0 3.096-1.362 3.096-2.468 0-1.255-0.784-1.93-1.679-2.253 0.675-0.432 1.142-1.147 2.298-2.927 0.399-0.62 0.606-0.904 1.073-1.551h-1.238l-0.894 1.389c-0.372 0.58-0.785 1.16-1.211 1.7-0.606 0.755-1.129 1.119-2.133 1.119h-0.674v-4.208h-1.032v9.199zm-1.362-0.89v-3.21h1.211c1.334 0 2.146 0.566 2.146 1.618 0 0.958-0.715 1.592-2.146 1.592z"
       clip-path="url(#clipPath13896)"
       id="path20" />
    <path
       transform="matrix(.90606 0 0 -.86349 236.99 671.57)"
       d="m0 0c0.31 0 0.561 0.251 0.561 0.561s-0.251 0.561-0.561 0.561-0.561-0.251-0.561-0.561 0.251-0.561 0.561-0.561"
       clip-path="url(#clipPath13908)"
       id="path21" />
    <path
       transform="matrix(.90606 0 0 -.86349 234.58 673.99)"
       d="m0 0c0.232 0 0.421 0.189 0.421 0.421s-0.189 0.42-0.421 0.42c-0.233 0-0.421-0.188-0.421-0.42s0.188-0.421 0.421-0.421"
       clip-path="url(#clipPath13910)"
       id="path22" />
    <path
       transform="matrix(.90606 0 0 -.86349 245.1 661.95)"
       d="m0 0h-2.915c0.762-0.702 1.825-1.926 1.825-1.926 2.812-3.143 4.449-7.361 4.449-11.131 0-0.047-1e-3 -0.093-1e-3 -0.139h-4.664c-0.709 7.367-6.576 13.196-13.702 13.196-7.604 0-13.768-6.544-13.768-14.616 0-4.383 2.009-9.287 5.277-12.941h2.917c-0.761 0.702-1.825 1.926-1.825 1.926-2.812 3.143-4.449 7.363-4.449 11.131 0 0.047 1e-3 0.093 1e-3 0.139h4.664c0.709-7.367 6.577-13.196 13.702-13.196 7.605 0 13.769 6.544 13.769 14.617 0 4.382-2.01 9.286-5.28 12.94m-3.232-13.196h-2.392v0.06c0 1.425-0.395 2.802-1.049 4.033h2.361c0.565-1.263 0.939-2.641 1.08-4.093m-1.504 4.95h-2.449c-0.919 1.378-2.158 2.515-3.489 3.242 0.639 0.359 1.225 0.795 1.741 1.297 1.738-1.106 3.187-2.671 4.197-4.539m-9.706 6.306c1.742-0.088 3.385-0.575 4.85-1.378-1.268-1.178-2.967-1.94-4.85-2.054zm0-4.154c1.014 0.056 1.978 0.283 2.864 0.65 1.309-0.576 2.537-1.564 3.472-2.802h-6.336zm-0.864 4.164v-3.449c-1.961 0.089-3.728 0.88-5.027 2.116 1.517 0.811 3.222 1.287 5.027 1.333m0-4.169v-2.147h-6.459c0.935 1.238 2.163 2.226 3.472 2.802 0.921-0.382 1.928-0.612 2.987-0.655m-5.691 2.452c0.53-0.527 1.136-0.984 1.801-1.357-1.332-0.727-2.572-1.863-3.491-3.242h-2.603c1.029 1.901 2.512 3.489 4.293 4.599m-5.822-9.856c0.115 1.565 0.5 3.048 1.106 4.4h2.514c-0.655-1.231-1.051-2.608-1.051-4.033 0-0.07 2e-3 -0.248 4e-3 -0.367zm6.556-0.858h2.388c-1e-3 -0.022-1e-3 -0.043-1e-3 -0.06 0-1.424 0.396-2.801 1.051-4.033h-2.359c-0.565 1.263-0.939 2.641-1.079 4.093m1.503-4.95h2.448c0.92-1.378 2.16-2.515 3.491-3.241-0.64-0.359-1.226-0.796-1.742-1.298-1.738 1.106-3.186 2.672-4.197 4.539m9.707-6.305c-1.742 0.087-3.386 0.575-4.851 1.377 1.268 1.179 2.968 1.942 4.851 2.055zm0 4.153c-1.013-0.056-1.979-0.282-2.864-0.65-1.31 0.577-2.537 1.564-3.469 2.802h6.333zm-6.908 3.009c-0.714 1.21-1.15 2.594-1.15 4.033v0.06l0.014 0.858h-6.39c-4e-3 0.108-7e-3 0.274-7e-3 0.367 0 1.439 0.437 2.823 1.153 4.033h14.811c0.715-1.21 1.152-2.594 1.152-4.033v-0.06h-7e-3l-0.014-0.857h6.389c3e-3 -0.109 6e-3 -0.274 6e-3 -0.368 0-1.439-0.436-2.823-1.153-4.033zm14.229-0.857c-0.935-1.238-2.164-2.226-3.473-2.802-0.921 0.382-1.927 0.612-2.985 0.656v2.146zm-6.458-6.316v3.45c1.961-0.089 3.726-0.881 5.027-2.116-1.518-0.811-3.222-1.287-5.027-1.334m5.69 1.718c-0.531 0.526-1.137 0.984-1.802 1.356 1.331 0.727 2.572 1.864 3.491 3.242h2.604c-1.029-1.901-2.513-3.489-4.293-4.598m4.716 5.455h-2.514c0.655 1.232 1.051 2.609 1.051 4.033 0 0.07-1e-3 0.249-4e-3 0.368h2.574c-0.116-1.565-0.502-3.049-1.107-4.401"
       clip-path="url(#clipPath13912)"
       id="path23" />
    <path
       d="m0.44216 346.64h539.35v-176.48h-539.35z"
       id="path24" />
  </g>
  <path
     id="path13897"
     d="m 287.46867,698.32603 h -0.9722 l -1.23405,-2.55076 h -3.8897 l -1.20867,2.55076 h -0.97311 l 3.77735,-7.98983 h 0.62427 z m -4.1887,-6.61604 -1.54573,3.29682 h 3.1413 z"
     style="fill:#ffffff icc-color(sRGB-IEC61966-2, 0.1, 1, 1, 1);fill-opacity:1;fill-rule:nonzero;stroke:none;stroke-width:0.884513"
     inkscape:transform-center-x="19.717605"
     inkscape:transform-center-y="-21.712535" />
  <path
     id="path13898"
     d="m 295.02313,691.15142 h -3.067 v 7.17474 h -0.93414 v -7.17474 h -3.067 v -0.76853 h 7.06814 z"
     style="fill:#ffffff icc-color(sRGB-IEC61966-2, 0.1, 1, 1, 1);fill-opacity:1;fill-rule:nonzero;stroke:none;stroke-width:0.884513"
     inkscape:transform-center-x="11.55835"
     inkscape:transform-center-y="-21.689125" />
  <path
     id="path13899"
     d="m 298.77533,698.32551 h -0.93506 v -7.9432 h 0.93506 z"
     style="fill:#ffffff icc-color(sRGB-IEC61966-2, 0.1, 1, 1, 1);fill-opacity:1;fill-rule:nonzero;stroke:none;stroke-width:0.884513"
     inkscape:transform-center-x="4.7396103"
     inkscape:transform-center-y="-21.68974" />
  <path
     id="path13900"
     d="M 0,0 C 0,2.428 1.857,4.721 5.008,4.721 8.063,4.721 10.03,2.508 10.03,0 10.03,-2.751 7.774,-4.721 4.953,-4.721 2.202,-4.721 0,-2.711 0,0 m 8.929,0.026 c 0,1.822 -1.43,3.737 -3.921,3.737 -2.407,0 -3.907,-1.794 -3.907,-3.777 0,-2.239 1.83,-3.75 3.838,-3.75 2.243,0 3.99,1.579 3.99,3.79"
     style="fill:#ffffff icc-color(sRGB-IEC61966-2, 0.1, 1, 1, 1);fill-opacity:1;fill-rule:nonzero;stroke:none"
     transform="matrix(0.90605527,0,0,-0.86348719,301.51818,694.35408)"
     clip-path="url(#clipPath13901-1)"
     inkscape:transform-center-x="-3.0146369"
     inkscape:transform-center-y="-21.68957" />
  <path
     id="path13902"
     d="m 320.879,698.3259 h -0.79824 l -6.07056,-6.54609 v 6.54609 h -0.91059 v -7.9432 h 0.79824 l 6.07056,6.54519 v -6.54519 h 0.91059 z"
     style="fill:#ffffff icc-color(sRGB-IEC61966-2, 0.1, 1, 1, 1);fill-opacity:1;fill-rule:nonzero;stroke:none;stroke-width:0.884513"
     inkscape:transform-center-x="-13.941895"
     inkscape:transform-center-y="-21.68935" />
</svg>
